<?xml version="1.0" encoding="UTF-8" standalone="no"?>
<!DOCTYPE svg PUBLIC "-//W3C//DTD SVG 1.1//EN" "http://www.w3.org/Graphics/SVG/1.1/DTD/svg11.dtd">
<svg width="100%" height="100%" viewBox="0 0 30 30" version="1.1" xmlns="http://www.w3.org/2000/svg" xmlns:xlink="http://www.w3.org/1999/xlink" xml:space="preserve" xmlns:serif="http://www.serif.com/" style="fill-rule:evenodd;clip-rule:evenodd;stroke-linejoin:round;stroke-miterlimit:2;">
    <path d="M15,3.002C10.758,3.002 9,5.723 9,9.002C9,10.106 9.527,11.215 9.527,11.215C9.315,11.336 8.967,11.723 9.055,12.412C9.219,13.695 9.775,14.022 10.129,14.049C10.264,15.246 11.55,16.777 12,17L12,19C11.917,19.251 11.77,19.456 11.598,19.645C12.436,20.368 13.574,21 15,21C16.426,21 17.564,20.368 18.402,19.645C18.23,19.456 18.083,19.251 18,19L18,17C18.45,16.777 19.736,15.246 19.871,14.049C20.225,14.022 20.781,13.695 20.945,12.412C21.033,11.723 20.685,11.337 20.473,11.215C20.473,11.215 21,10.213 21,9.002C21,6.574 20.047,4.502 18,4.502C18,4.502 17.289,3.002 15,3.002ZM9.762,20.674C7.065,21.59 3,22.006 3,27L27,27C27,22.006 22.935,21.59 20.238,20.674C19.098,21.829 17.364,23 15,23C12.636,23 10.902,21.829 9.762,20.674Z" style="fill:white;fill-rule:nonzero;"/>
</svg>
