<?xml version="1.0" encoding="UTF-8" standalone="no"?>
<!DOCTYPE svg PUBLIC "-//W3C//DTD SVG 1.1//EN" "http://www.w3.org/Graphics/SVG/1.1/DTD/svg11.dtd">
<svg width="100%" height="100%" viewBox="0 0 50 50" version="1.1" xmlns="http://www.w3.org/2000/svg" xmlns:xlink="http://www.w3.org/1999/xlink" xml:space="preserve" xmlns:serif="http://www.serif.com/" style="fill-rule:evenodd;clip-rule:evenodd;stroke-linejoin:round;stroke-miterlimit:2;">
    <path d="M21.98,2C18.137,2.086 15.375,3.199 13.766,5.313C11.949,7.703 11.633,11.266 12.797,16.195C12.387,16.727 12.012,17.574 12.109,18.734C12.402,20.898 13.23,21.789 13.898,22.152C14.234,23.953 15.219,25.863 16.102,26.766C16.105,26.988 16.109,27.203 16.113,27.418C16.133,28.375 16.145,29.203 16.02,30.266C15.816,30.793 15.402,31.234 14.84,31.633L17.984,35.422L20.922,31.773C21.188,31.445 21.617,31.141 22,31.258C22.379,31.141 22.813,31.445 23.078,31.773L23.742,32.598C23.938,32.801 24.133,33.039 24.316,33.313L26.234,35.633C26.082,36.398 26,37.191 26,38L25.992,38C25.691,37.996 25.41,37.859 25.219,37.625L23.234,35.156L22.5,35.801C22.5,35.801 24.27,38.758 24.766,42L19.238,42C19.742,38.813 21.5,35.801 21.5,35.801L20.742,35.188L18.781,37.625C18.59,37.859 18.309,37.996 18.008,38L18,38C17.703,38 17.422,37.867 17.23,37.641L13.043,32.598C12.438,32.871 11.781,33.133 11.094,33.406C7.191,34.949 2.336,36.875 2,42.945L1.945,44L27.629,44C29.711,47.578 33.578,50 38,50C44.609,50 50,44.605 50,38C50,31.395 44.609,26 38,26C34.039,26 30.527,27.945 28.34,30.922C28.184,30.738 28.051,30.547 27.961,30.34C27.902,29.129 27.801,27.191 27.801,26.754C28.668,25.84 29.586,23.926 29.969,22.191C30.688,21.852 31.59,20.969 31.797,18.684C31.891,17.559 31.582,16.734 31.156,16.199C31.816,14.129 32.938,9.535 31.094,6.488C30.254,5.102 28.941,4.23 27.184,3.883C26.215,2.664 24.398,2 21.98,2ZM22,4C23.891,4 25.254,4.477 25.734,5.305L25.98,5.723L26.457,5.789C27.836,5.984 28.793,6.551 29.379,7.523C30.664,9.641 30.008,13.5 29.059,16.16L28.742,16.984L29.535,17.383C29.625,17.445 29.863,17.789 29.805,18.508C29.668,19.988 29.199,20.383 29.098,20.402L28.234,20.402L28.109,21.262C27.836,23.184 26.684,25.156 26.305,25.434L25.801,25.719L25.801,26.301C25.801,27.336 25.805,28.184 25.832,29.125L22,31.254L18.109,29.094C18.129,28.504 18.121,27.945 18.109,27.379C18.105,27.035 18.098,26.68 18.098,26.297L18.035,25.734L17.609,25.438C17.215,25.168 15.973,23.172 15.797,21.305L15.781,20.406L14.875,20.406C14.73,20.352 14.285,19.879 14.094,18.516C14.027,17.68 14.453,17.332 14.453,17.332L15.047,16.938L14.871,16.254C13.707,11.668 13.867,8.484 15.359,6.523C16.578,4.922 18.82,4.07 22,4ZM38,28C43.523,28 48,32.477 48,38C48,43.523 43.523,48 38,48C32.477,48 28,43.523 28,38C28,32.477 32.477,28 38,28ZM37,32L37,37L32,37L32,39L37,39L37,44L39,44L39,39L44,39L44,37L39,37L39,32L37,32Z" style="fill:white;fill-rule:nonzero;"/>
</svg>
