<?xml version="1.0" encoding="UTF-8" standalone="no"?>
<!DOCTYPE svg PUBLIC "-//W3C//DTD SVG 1.1//EN" "http://www.w3.org/Graphics/SVG/1.1/DTD/svg11.dtd">
<svg width="100%" height="100%" viewBox="0 0 50 50" version="1.1" xmlns="http://www.w3.org/2000/svg" xmlns:xlink="http://www.w3.org/1999/xlink" xml:space="preserve" xmlns:serif="http://www.serif.com/" style="fill-rule:evenodd;clip-rule:evenodd;stroke-linejoin:round;stroke-miterlimit:2;">
    <path d="M40.906,3C39.805,3 39,3.805 39,4.906C39,6.008 39.805,6.813 40.906,6.813C42.008,6.813 42.813,6.008 42.813,4.906C42.813,3.805 42.008,3 40.906,3ZM21,5C17.398,5.102 14.699,6.207 13,8.406C11,11.008 10.605,15.086 11.906,20.188C11.406,20.688 11.086,21.586 11.188,22.688C11.387,24.887 12.301,25.789 13,26.188C13.301,27.887 14.289,29.914 15.188,30.813L15.188,31.313C15.188,32.313 15.195,33.211 15.094,34.313C14.492,35.711 12.699,36.508 10.5,37.406C6.898,38.906 2.398,40.805 2,46.906L1.906,48L40.094,48L40.094,46.906C39.695,40.906 35.195,38.906 31.594,37.406C29.492,36.508 27.602,35.711 27,34.313C26.898,33.211 26.906,32.313 26.906,31.313L26.906,30.813C27.805,29.914 28.793,27.887 29.094,26.188C29.793,25.789 30.605,24.887 30.906,22.688C31.105,21.586 30.711,20.789 30.313,20.188C30.914,18.188 32,13.113 30,9.813C29.102,8.414 27.793,7.488 26.094,7.188C25.094,5.789 23.199,5 21,5ZM38,9L38,11L40,11L40,21L38,21L38,23L44,23L44,21L42,21L42,9L38,9Z" style="fill:white;fill-rule:nonzero;"/>
</svg>
