<?xml version="1.0" encoding="UTF-8" standalone="no"?>
<!DOCTYPE svg PUBLIC "-//W3C//DTD SVG 1.1//EN" "http://www.w3.org/Graphics/SVG/1.1/DTD/svg11.dtd">
<svg width="100%" height="100%" viewBox="0 0 30 30" version="1.1" xmlns="http://www.w3.org/2000/svg"
     xmlns:xlink="http://www.w3.org/1999/xlink" xml:space="preserve" xmlns:serif="http://www.serif.com/"
     style="fill-rule:evenodd;clip-rule:evenodd;stroke-linejoin:round;stroke-miterlimit:2;">
    <path d="M15,2C14.739,2 14.488,2.102 14.301,2.285L3.393,11.207C3.38,11.217 3.368,11.226 3.355,11.236L3.318,11.268L3.318,11.27C3.116,11.458 3,11.723 3,12C3,12.549 3.451,13 4,13L5,13L5,24C5,25.105 5.895,26 7,26L23,26C24.105,26 25,25.105 25,24L25,13L26,13C26.549,13 27,12.549 27,12C27,11.722 26.885,11.457 26.682,11.268L26.666,11.256C26.644,11.236 26.621,11.217 26.598,11.199L25,9.893L25,6C25,5.448 24.552,5 24,5L23,5C22.448,5 22,5.448 22,6L22,7.439L15.678,2.268C15.494,2.096 15.251,2.001 15,2ZM18,15L22,15L22,23L18,23L18,15Z"
          style="fill:white;fill-rule:nonzero;"/>
</svg>
