<svg xmlns="http://www.w3.org/2000/svg" xmlns:xlink="http://www.w3.org/1999/xlink" viewBox="0 0 26 26"><path fill="white" d="M3 0C1.34375 0 0 1.34375 0 3L0 21C0 22.65625 1.34375 24 3 24L13.125 24C12.765625 23.382813 12.464844 22.710938 12.28125 22L3 22C2.449219 22 2 21.550781 2 21L2 4L22 4L22 12.28125C22.710938 12.464844 23.382813 12.765625 24 13.125L24 3C24 1.34375 22.65625 0 21 0 Z M 5 8L5 10L7 10L7 8 Z M 9 8L9 10L19 10L19 8 Z M 5 12L5 14L7 14L7 12 Z M 9 12L9 14L14.75 14C15.914063 12.980469 17.390625 12.296875 19 12.09375L19 12 Z M 20 14.03125C16.699219 14.03125 14.03125 16.699219 14.03125 20C14.03125 23.300781 16.699219 25.96875 20 25.96875C23.300781 25.96875 25.96875 23.300781 25.96875 20C25.96875 16.699219 23.300781 14.03125 20 14.03125 Z M 5 16L5 18L7 18L7 16 Z M 9 16L9 18L12.28125 18C12.464844 17.289063 12.765625 16.617188 13.125 16 Z M 17.875 16.46875L20 18.59375L22.125 16.46875L23.53125 17.875L21.40625 20L23.53125 22.125L22.125 23.53125L20 21.40625L17.875 23.53125L16.46875 22.125L18.59375 20L16.46875 17.875Z"/></svg>